HIERARCHY
ROOT Hips
{
  OFFSET -125.086 92.215 135.881
  CHANNELS 6 Xposition Yposition Zposition Zrotation Xrotation Yrotation
  JOINT LeftUpLeg
  {
    OFFSET 8.64259 1.95398 -2.38835
    CHANNELS 3 Zrotation Xrotation Yrotation
    JOINT LeftLeg
    {
      OFFSET 43.7702 0 0
      CHANNELS 3 Zrotation Xrotation Yrotation
      JOINT LeftFoot
      {
        OFFSET 40.6238 0 0
        CHANNELS 3 Zrotation Xrotation Yrotation
        JOINT LeftToeBase
        {
          OFFSET 12.7242 0 0
          CHANNELS 3 Zrotation Xrotation Yrotation
          End Site
          {
            OFFSET 0 0 0
          }
        }
      }
    }
  }
  JOINT RightUpLeg
  {
    OFFSET -8.2249 1.95398 -2.59336
    CHANNELS 3 Zrotation Xrotation Yrotation
    JOINT RightLeg
    {
      OFFSET 43.5653 0 0
      CHANNELS 3 Zrotation Xrotation Yrotation
      JOINT RightFoot
      {
        OFFSET 40.6238 0 0
        CHANNELS 3 Zrotation Xrotation Yrotation
        JOINT RightToeBase
        {
          OFFSET 12.7242 0 0
          CHANNELS 3 Zrotation Xrotation Yrotation
          End Site
          {
            OFFSET 0 0 0
          }
        }
      }
    }
  }
  JOINT Spine
  {
    OFFSET 0.165834 0.87714 6.61349
    CHANNELS 3 Zrotation Xrotation Yrotation
    JOINT Spine1
    {
      OFFSET 7.38963 1.71661e-005 0
      CHANNELS 3 Zrotation Xrotation Yrotation
      JOINT Spine2
      {
        OFFSET 11.9445 1.14441e-005 0
        CHANNELS 3 Zrotation Xrotation Yrotation
        JOINT Spine3
        {
          OFFSET 14.7254 4.19617e-005 0
          CHANNELS 3 Zrotation Xrotation Yrotation
          JOINT Spine4
          {
            OFFSET 10.9679 0 0
            CHANNELS 3 Zrotation Xrotation Yrotation
            JOINT RightShoulder
            {
              OFFSET 2.46616 -1.6653 3.69651
              CHANNELS 3 Zrotation Xrotation Yrotation
              JOINT RightArm
              {
                OFFSET 13.0012 0 0
                CHANNELS 3 Zrotation Xrotation Yrotation
                JOINT RightForeArm
                {
                  OFFSET 28.7848 1.52588e-005 0
                  CHANNELS 3 Zrotation Xrotation Yrotation
                  JOINT RightHand
                  {
                    OFFSET 26.5688 1.52588e-005 0
                    CHANNELS 3 Zrotation Xrotation Yrotation
                    End Site
                    {
                      OFFSET 0 0 0
                    }
                  }
                }
              }
            }
            JOINT LeftShoulder
            {
              OFFSET 2.38034 -1.29275 -3.7523
              CHANNELS 3 Zrotation Xrotation Yrotation
              JOINT LeftArm
              {
                OFFSET 16.3182 6.10352e-005 0
                CHANNELS 3 Zrotation Xrotation Yrotation
                JOINT LeftForeArm
                {
                  OFFSET 27.0901 0 0
                  CHANNELS 3 Zrotation Xrotation Yrotation
                  JOINT LeftHand
                  {
                    OFFSET 24.5451 1.52588e-005 0
                    CHANNELS 3 Zrotation Xrotation Yrotation
                    End Site
                    {
                      OFFSET 0 0 0
                    }
                  }
                }
              }
            }
            JOINT Neck
            {
              OFFSET 5.0226 -0.0266342 0
              CHANNELS 3 Zrotation Xrotation Yrotation
              JOINT Head
              {
                OFFSET 6.69363 2.86102e-005 0
                CHANNELS 3 Zrotation Xrotation Yrotation
                End Site
                {
                  OFFSET 0 0 0
                }
              }
            }
          }
        }
      }
    }
  }
}
MOTION
Frames:	10
Frame Time:	0.0416667
-1.16222 96.8029 -8.88444 116.19 -84.1865 115.939 -174.47 2.81187 90.8328 -14.9929 4.87386 2.4781 65.4949 5.44172 -1.90935 31.2602 -0.745894 5.67543 174.431 3.16078 87.2988 -16.2907 -4.95112 -0.399664 66.7724 -4.92276 2.46489 30.826 -0.123094 -2.44964 -0.30234 7.21375 -90.2017 12.4455 -0.69658 -0.322986 0.774664 -0.71012 -0.29202 -21.7612 -0.567304 -0.517412 -1.7486 -0.567306 -0.51741 110.787 -53.2139 -69.2652 29.9822 0.0284687 -12.9689 2.6704 -23.667 -8.42242 -11.7889 -0.410595 -1.17366 -71.3541 -48.6548 106.885 -44.601 -7.77662 -23.9292 6.1964 61.6452 -0.712964 -7.15522 0.255511 -12.6414 10.0334 0.0270524 4.98914 -19.2888 -0.44222 -4.86583 
-1.12014 96.796 -8.78848 117.21 -83.9899 117.081 -174.281 2.27238 90.9612 -14.2399 3.82135 2.40547 66.0262 5.72734 -2.30604 30.1961 -0.513197 3.77469 174.421 2.71766 87.3803 -15.9154 -4.91982 -0.370704 66.6881 -4.92589 2.59315 31.0519 -0.13628 -2.79239 -0.29977 7.23104 -90.2259 12.4107 -0.702979 -0.370705 0.73986 -0.718603 -0.339416 -21.7959 -0.559066 -0.564844 -1.78327 -0.559057 -0.564843 110.973 -53.119 -68.9732 30.0076 0.717402 -13.0938 2.04753 -25.9088 -8.75161 -11.9844 -0.488398 -0.460242 -71.3857 -48.7791 106.822 -43.8575 -6.69594 -23.8536 4.15733 53.5966 0.0517884 -1.50795 -0.139102 -9.24789 8.94969 -0.347504 4.10546 -17.4538 -0.807118 -3.56136 
-1.03515 96.7945 -8.7056 118.907 -84.2951 118.78 -174.302 2.15144 90.9252 -14.243 3.47319 2.42071 66.0294 5.61676 -2.60612 30.2588 -0.562704 4.23795 174.371 2.78841 87.2449 -16.0726 -5.01942 -0.378802 66.8516 -4.79529 3.32489 30.6124 -0.0327998 -3.08237 -0.25818 7.23258 -90.2384 12.4076 -0.626297 -0.404447 0.736723 -0.643493 -0.376495 -21.7987 -0.475793 -0.573975 -1.78606 -0.475793 -0.573978 110.942 -53.0126 -69.0026 29.8496 0.491348 -13.076 2.16385 -25.3738 -8.92185 -11.8906 -0.518037 -0.119303 -71.1708 -49.0976 107.114 -43.695 -6.72302 -24.0584 4.31243 53.1629 0.010925 -1.27457 -0.143887 -9.96649 9.03359 -0.446247 4.31554 -17.3647 -0.982772 -3.33295 
-1.04623 96.787 -8.79506 116.648 -84.3803 116.717 -174.292 2.65363 91.0489 -14.6316 3.6686 2.45061 65.9853 5.58184 -2.39039 30.6547 -0.592993 4.3484 174.458 3.00538 87.4598 -15.9247 -5.09197 -0.294462 66.534 -4.76793 2.97672 31.0286 -0.114946 -3.00822 -0.255362 7.20562 -90.2559 12.4613 -0.62907 -0.438903 0.790449 -0.647781 -0.410795 -21.7449 -0.468086 -0.607661 -1.73222 -0.46809 -0.607683 110.968 -53.073 -68.9727 29.8164 0.498699 -13.081 2.1275 -25.4598 -8.98047 -11.8721 -0.520222 -0.0911826 -71.2838 -48.8847 106.966 -43.88 -6.69552 -24.0704 4.38048 53.1943 0.010933 -1.61314 -0.127666 -9.99189 8.97885 -0.320851 4.25918 -17.4143 -0.851024 -3.27316 
-1.02986 96.8025 -8.78832 116.33 -84.217 116.38 -174.361 2.51077 91.0109 -14.4015 3.76254 2.50758 66.0396 5.67589 -2.41806 30.3896 -0.583822 4.38199 174.434 2.86548 87.455 -15.8032 -5.24776 -0.285443 66.4058 -4.85541 2.42572 31.4514 -0.190569 -3.03559 -0.267799 7.20432 -90.266 12.4638 -0.658587 -0.45562 0.792957 -0.678001 -0.426191 -21.7424 -0.491215 -0.632483 -1.72974 -0.491215 -0.632487 110.802 -52.9808 -69.2066 29.9379 0.641377 -13.0343 2.0446 -25.6136 -8.86775 -11.9084 -0.483741 -0.476318 -71.1204 -48.9394 107.21 -43.765 -6.56998 -24.0611 4.21393 52.9511 0.0108715 -1.85697 -0.116122 -10.0548 8.9535 -0.0939782 4.45282 -17.6572 -0.649216 -3.37999 
-1.03091 96.7845 -8.7983 116.595 -84.0579 116.44 -174.436 2.43602 90.8374 -14.4488 3.63854 2.46992 66.107 5.71521 -2.5511 30.2336 -0.559411 4.21422 174.415 2.95803 87.2868 -16.2044 -4.86109 -0.395459 66.7947 -4.8771 2.7479 30.8625 -0.116546 -2.60997 -0.269665 7.21228 -90.2436 12.4482 -0.651611 -0.411718 0.777315 -0.669094 -0.382643 -21.7582 -0.497747 -0.588524 -1.74552 -0.497747 -0.588518 110.869 -53.0535 -69.1177 29.7453 0.446286 -13.0838 2.19982 -25.2497 -8.8777 -12.0199 -0.48995 -0.458988 -71.1064 -48.9664 107.228 -43.6722 -6.459 -24.071 4.08727 52.7758 0.0108276 -1.47201 -0.133872 -9.87664 9.03932 -0.0166615 4.49266 -17.8463 -0.577102 -3.40245 
-1.0422 96.7864 -8.77547 118.04 -83.8479 117.669 -174.412 2.07436 90.7147 -14.2053 3.72003 2.39766 65.9893 5.73015 -2.50691 30.2807 -0.53016 3.906 174.29 2.86783 87.0574 -16.5124 -4.82929 -0.428627 66.9037 -4.81521 3.03512 30.9619 -0.113882 -2.87305 -0.290003 7.23113 -90.2208 12.4106 -0.681133 -0.363105 0.739754 -0.696457 -0.332772 -21.796 -0.540523 -0.551027 -1.78334 -0.540522 -0.551026 110.692 -53.0783 -69.386 29.9044 0.65506 -13.1147 2.15343 -25.2811 -8.84496 -11.8286 -0.541143 0.137095 -71.0827 -48.9103 107.272 -43.563 -6.47015 -24.0487 4.07754 52.6461 0.0107955 -1.49224 -0.133558 -9.94547 9.17765 0.0461449 3.99355 -18.2773 -0.490591 -2.67661 
-1.02236 96.7788 -8.75268 119.204 -83.7829 118.796 -174.471 1.92343 90.639 -14.2842 3.8387 2.45 65.8886 5.64485 -2.54884 30.421 -0.618694 4.71516 174.234 2.73047 86.9755 -16.561 -4.64481 -0.429131 67.0878 -4.77276 3.45802 30.6346 -0.0237682 -3.23759 -0.261302 7.25242 -90.2298 12.3679 -0.62834 -0.387362 0.697092 -0.644781 -0.359338 -21.8384 -0.482869 -0.55829 -1.82575 -0.48288 -0.558304 110.808 -53.0314 -69.205 29.9294 0.690136 -13.3841 2.30727 -25.4837 -8.47295 -12.0344 -0.531597 0.0031955 -71.0617 -49.045 107.288 -43.5321 -6.40744 -24.2715 4.1074 52.6952 0.0108076 -1.56723 -0.130886 -10.1299 9.54023 0.124479 3.82365 -18.9785 -0.40127 -2.45881 
-1.03916 96.7971 -8.77174 118.396 -83.8547 118.059 -174.475 2.08391 90.6905 -14.3068 3.78408 2.46505 65.9061 5.70534 -2.35918 30.3902 -0.561481 4.16158 174.228 2.80976 87.0402 -16.4494 -5.00984 -0.361574 66.8427 -4.81901 3.0103 31.0513 -0.0932704 -3.33893 -0.248735 7.23876 -90.2512 12.3951 -0.613569 -0.431673 0.724253 -0.631971 -0.404251 -21.811 -0.455471 -0.596118 -1.7984 -0.455477 -0.596122 110.726 -52.9639 -69.3177 29.796 0.399133 -13.3489 2.49416 -24.723 -8.63748 -11.8972 -0.528321 -0.020959 -70.8267 -49.3389 107.611 -43.3582 -6.60435 -24.3975 4.1376 53.0486 0.010896 -1.97616 -0.109215 -9.77067 9.63786 0.46596 3.83072 -19.6947 -0.0472399 -2.51326 
-1.08462 96.7784 -8.72992 119.124 -83.7097 118.621 -174.507 1.81979 90.5945 -14.1129 3.89997 2.45383 65.9035 5.72837 -2.39496 30.3838 -0.578877 4.33858 174.211 2.79096 86.9444 -16.7815 -4.87019 -0.434328 67.0893 -4.86035 2.98702 31.0932 -0.10528 -3.28638 -0.252731 7.24942 -90.2399 12.374 -0.616064 -0.40876 0.703106 -0.63346 -0.38126 -21.8323 -0.464739 -0.575023 -1.81964 -0.464739 -0.575023 110.7 -52.9846 -69.3584 29.9211 0.484173 -13.2773 2.40659 -24.432 -8.80404 -11.8991 -0.549412 0.190671 -70.9308 -49.2514 107.463 -43.3536 -6.63305 -24.0132 4.10862 52.5935 0.0107825 -2.11152 -0.103254 -9.94481 9.32332 1.89199 1.52407 -19.8537 1.4005 0.8536 
